# xmcd
#
# Track frame offsets:
#	150
#	23619
#	47812
#
# Disc length: 982 seconds
#
# Revision: 2
# Processed by: cddbd v1.5.2PL0 Copyright (c) Steve Scherf et al.
# Submitted via: EasyCDDAExtractor 10.0.2.1
#
DISCID=1a03d403
DTITLE=Saattue - Ikiuneen...
DYEAR=2006
DGENRE=Death Metal
TTITLE0=Luutarhuri
TTITLE1=Ikiuneen
TTITLE2=Kaaosmaa
EXTD=
EXTT0=
EXTT1=
EXTT2=
PLAYORDER=
